<?xml version="1.0" standalone="yes"?>
<svg xmlns="http://www.w3.org/2000/svg" width="732" height="178">
<path style="fill:#fdfefe; stroke:none;" d="M0 0L0 178L732 178L732 0L0 0z"/>
<path style="fill:#7f9cbe; stroke:none;" d="M535 2L535 3L538 3L535 2z"/>
<path style="fill:#2b68b0; stroke:none;" d="M538 2.47917C523.379 5.50311 527 26.8483 527 38L527 131C527 141.247 523.689 159.1 529.728 167.956C536.05 177.226 558.085 173 568 173L651 173C662.419 173 678.06 175.792 688.999 172.486C701.495 168.71 697 145.958 697 136L697 42C697 32.9794 700.504 14.4072 694.566 7.10803C687.149 -2.01097 666.476 2 656 2L577 2C564.597 2 550.159 -0.0354309 538 2.47917z"/>
<path style="fill:#7f9cbe; stroke:none;" d="M687.667 2.33333L688.333 2.66667L687.667 2.33333M533 3L534 4L533 3M690.667 3.33333L691.333 3.66667L690.667 3.33333M532 4L533 5L532 4M692 4L693 5L692 4M693 5L694 6L693 5M694 6L695 7L694 6M529 7L530 8L529 7M695 7L696 8L695 7M528.333 8.66667L528.667 9.33333L528.333 8.66667M696 9L697 10L696 9M527 11L527 17L528 17L527 11M697 11L697 164L698 164L698 57C698 44.0088 702.007 22.9315 697 11M122 25L122 26L127 26L122 25M564 25L564 26L567 26L564 25M119 26L120 27L119 26z"/>
<path style="fill:#2b68b0; stroke:none;" d="M120 26.6528C102.229 32.2271 111.265 60.0886 128.999 54.1451C146.555 48.2615 137.773 21.0778 120 26.6528z"/>
<path style="fill:#7f9cbe; stroke:none;" d="M129 26L130 27L129 26z"/>
<path style="fill:#4d4d4e; stroke:none;" d="M389 26L388 31L389 31L389 26z"/>
<path style="fill:#04060c; stroke:none;" d="M390 26L384 46L390 39L398 41L397 51C402.762 45.9337 404.776 36.3808 404 29C399.954 30.3429 400.047 33.0654 400 37C392.134 34.8631 394.828 30.7784 390 26z"/>
<path style="fill:#4d4d4e; stroke:none;" d="M391 26L393 28L391 26z"/>
<path style="fill:#7f9cbe; stroke:none;" d="M392 26L393 27L392 26M560 26L561 27L560 26z"/>
<path style="fill:#fdfefe; stroke:none;" d="M561 26.6528C543.704 32.0569 551.544 59.5849 569 54.1952C586.52 48.7858 578.708 21.12 561 26.6528z"/>
<path style="fill:#7f9cbe; stroke:none;" d="M569.667 26.3333L570.333 26.6667L569.667 26.3333M25 27L25 148L26 148L26 28L51 28L51 124L100 124L100 144L101 144L99.9722 124.603L87 123L52 123L52 27L25 27M117 27L118 28L117 27M131 27L132 28L131 27M246 149L246 148L243 148L243 28L268 28C263.852 26.2592 246.094 24.7324 243.028 28.6034C239.538 33.009 242 46.5325 242 52L242 116C242 123.094 238.35 146.461 246 149M476 27L476 73L471 69L477 74L477 28L502 28L476 27M557.667 27.3333L558.333 27.6667L557.667 27.3333M572 27L573 28L572 27z"/>
<path style="fill:#2b68b0; stroke:none;" d="M26 28L26 148L100 148L100 124L51 124L51 28L26 28z"/>
<path style="fill:#7f9cbe; stroke:none;" d="M115 28L116 29L115 28M133 28L134 29L133 28z"/>
<path style="fill:#2b68b0; stroke:none;" d="M243 28L243 148L268 148L268 108L269 108L287.667 137L296.104 147.397L326 148L303.873 117L295.596 104.424L303.285 94L326 67C318.314 66.3587 302.933 64.4818 296.015 68.0278C285.099 73.6228 276.472 90.1481 268 99L268 28L243 28z"/>
<path style="fill:#7f9cbe; stroke:none;" d="M401 28L401 29L404 29L401 28z"/>
<path style="fill:#2b68b0; stroke:none;" d="M477 28L477 74C470.192 69.3498 464.514 65.0884 456 64.1736C450.337 63.5651 444.416 63.9562 439 65.75C393.041 80.9721 413.367 164.689 463 148.25C469.5 146.097 474.232 141.728 479 137L479 148L502 148L502 28L477 28z"/>
<path style="fill:#7f9cbe; stroke:none;" d="M556 28L557 29L556 28M573 28L574 29L573 28M114 29L115 30L114 29M134 29L135 30L134 29M400 29L401 30L400 29M404 29L405 30L404 29M555 29L556 30L555 29M574 29L575 30L574 29M113 30L114 31L113 30M135 30L136 31L135 30z"/>
<path style="fill:#4d4d4e; stroke:none;" d="M404 30L404 33L405 33L404 30z"/>
<path style="fill:#7f9cbe; stroke:none;" d="M554 30L555 31L554 30M112 31L113 32L112 31M553 31L554 32L553 31M576 31L577 32L576 31M387 32L388 33L387 32z"/>
<path style="fill:#4d4d4e; stroke:none;" d="M392 32L393 33L392 32z"/>
<path style="fill:#7f9cbe; stroke:none;" d="M552.333 32.6667L552.667 33.3333L552.333 32.6667M577 32L578 33L577 32M111 33L112 34L111 33M137 33L138 34L137 33z"/>
<path style="fill:#4d4d4e; stroke:none;" d="M387 33L388 34L387 33z"/>
<path style="fill:#7f9cbe; stroke:none;" d="M392.333 33.6667L392.667 34.3333L392.333 33.6667z"/>
<path style="fill:#4d4d4e; stroke:none;" d="M412 35L415 34L412 35z"/>
<path style="fill:#7f9cbe; stroke:none;" d="M415 33L418 36L415 33z"/>
<path style="fill:#04060c; stroke:none;" d="M415 57L410 52L411 48L420 51L415 40L424 42C417.602 22.1712 393.011 55.5242 415 57z"/>
<path style="fill:#7f9cbe; stroke:none;" d="M551.333 34.6667L551.667 35.3333L551.333 34.6667M578 34L579 35L578 34M110.333 35.6667L110.667 36.3333L110.333 35.6667M138.333 35.6667L138.667 36.3333L138.333 35.6667z"/>
<path style="fill:#4d4d4e; stroke:none;" d="M386 35L387 36L386 35M393 35L394 36L393 35z"/>
<path style="fill:#7f9cbe; stroke:none;" d="M394 35L394 36L397 36L394 35z"/>
<path style="fill:#4d4d4e; stroke:none;" d="M404 35L405 36L404 35z"/>
<path style="fill:#7f9cbe; stroke:none;" d="M411.333 35.6667L411.667 36.3333L411.333 35.6667z"/>
<path style="fill:#4d4d4e; stroke:none;" d="M398.667 36.3333L399.333 36.6667L398.667 36.3333z"/>
<path style="fill:#7f9cbe; stroke:none;" d="M404.333 36.6667L404.667 37.3333L404.333 36.6667z"/>
<path style="fill:#4d4d4e; stroke:none;" d="M418 36L419 37L418 36z"/>
<path style="fill:#7f9cbe; stroke:none;" d="M385 37L386 38L385 37z"/>
<path style="fill:#4d4d4e; stroke:none;" d="M411 37L412 38L411 37M420 37L421 38L420 37z"/>
<path style="fill:#7f9cbe; stroke:none;" d="M421 37L422 38L421 37M579 37L579 44L580 44L579 37z"/>
<path style="fill:#4d4d4e; stroke:none;" d="M403 38L404 39L403 38z"/>
<path style="fill:#7f9cbe; stroke:none;" d="M410 38L411 39L410 38z"/>
<path style="fill:#4d4d4e; stroke:none;" d="M423 38L424 39L423 38z"/>
<path style="fill:#7f9cbe; stroke:none;" d="M550 38L550 43L551 43L550 38M109.333 39.6667L109.667 40.3333L109.333 39.6667M384 39L385 40L384 39M390 39L391 40L390 39z"/>
<path style="fill:#4d4d4e; stroke:none;" d="M391 39L392 40L391 39z"/>
<path style="fill:#7f9cbe; stroke:none;" d="M403.333 39.6667L403.667 40.3333L403.333 39.6667z"/>
<path style="fill:#4d4d4e; stroke:none;" d="M410 39L411 40L410 39M424.333 39.6667L424.667 40.3333L424.333 39.6667z"/>
<path style="fill:#7f9cbe; stroke:none;" d="M389 40L390 41L389 40M393.667 40.3333L394.333 40.6667L393.667 40.3333z"/>
<path style="fill:#4d4d4e; stroke:none;" d="M395.667 40.3333L396.333 40.6667L395.667 40.3333z"/>
<path style="fill:#7f9cbe; stroke:none;" d="M415 40L416 41L415 40z"/>
<path style="fill:#4d4d4e; stroke:none;" d="M416 40L417 41L416 40z"/>
<path style="fill:#7f9cbe; stroke:none;" d="M383 41L384 42L383 41z"/>
<path style="fill:#4d4d4e; stroke:none;" d="M397 41L398 42L397 41M402 41L403 42L402 41M409 41L410 42L409 41M414 41L415 42L414 41z"/>
<path style="fill:#7f9cbe; stroke:none;" d="M417 41L418 42L417 41z"/>
<path style="fill:#4d4d4e; stroke:none;" d="M418 41L419 42L418 41z"/>
<path style="fill:#7f9cbe; stroke:none;" d="M424 41L425 42L424 41M388 42L389 43L388 42M402 42L403 43L402 42M414 42L415 43L414 42M420.667 42.3333L421.333 42.6667L420.667 42.3333z"/>
<path style="fill:#4d4d4e; stroke:none;" d="M422 42L423 43L422 42z"/>
<path style="fill:#7f9cbe; stroke:none;" d="M423 42L424 43L423 42M382.333 43.6667L382.667 44.3333L382.333 43.6667z"/>
<path style="fill:#4d4d4e; stroke:none;" d="M401 43L401 46L402 46L401 43M408 43L409 44L408 43M413 43L414 44L413 43z"/>
<path style="fill:#7f9cbe; stroke:none;" d="M110.333 44.6667L110.667 45.3333L110.333 44.6667M138 44L139 45L138 44M387 44L388 45L387 44M396 44L397 45L396 44M414 44L415 45L414 44z"/>
<path style="fill:#4d4d4e; stroke:none;" d="M383 45L384 46L383 45M386 45L387 46L386 45M396 45L397 46L396 45z"/>
<path style="fill:#7f9cbe; stroke:none;" d="M407 45L408 46L407 45z"/>
<path style="fill:#4d4d4e; stroke:none;" d="M415 45L416 46L415 45z"/>
<path style="fill:#7f9cbe; stroke:none;" d="M416 45L417 46L416 45M551 45L552 46L551 45M137.333 46.6667L137.667 47.3333L137.333 46.6667M401 46L402 47L401 46z"/>
<path style="fill:#4d4d4e; stroke:none;" d="M417 46L418 47L417 46z"/>
<path style="fill:#7f9cbe; stroke:none;" d="M418 46L419 47L418 46M578 46L579 47L578 46M111 47L112 48L111 47M395 47L396 48L395 47z"/>
<path style="fill:#4d4d4e; stroke:none;" d="M400 47L401 48L400 47z"/>
<path style="fill:#7f9cbe; stroke:none;" d="M406 47L407 48L406 47z"/>
<path style="fill:#4d4d4e; stroke:none;" d="M419 47L420 48L419 47z"/>
<path style="fill:#7f9cbe; stroke:none;" d="M552 47L553 48L552 47M136 48L137 49L136 48z"/>
<path style="fill:#4d4d4e; stroke:none;" d="M395 48L396 49L395 48z"/>
<path style="fill:#7f9cbe; stroke:none;" d="M400 48L401 49L400 48M405 48L406 49L405 48z"/>
<path style="fill:#4d4d4e; stroke:none;" d="M411 48L412 49L411 48z"/>
<path style="fill:#7f9cbe; stroke:none;" d="M420.333 48.6667L420.667 49.3333L420.333 48.6667M577 48L578 49L577 48M395 49L396 50L395 49z"/>
<path style="fill:#4d4d4e; stroke:none;" d="M399 49L398 51L399 49z"/>
<path style="fill:#7f9cbe; stroke:none;" d="M404 49L405 50L404 49z"/>
<path style="fill:#4d4d4e; stroke:none;" d="M413 49L414 50L413 49z"/>
<path style="fill:#7f9cbe; stroke:none;" d="M553 49L554 50L553 49M576 49L577 50L576 49M113 50L114 51L113 50z"/>
<path style="fill:#4d4d4e; stroke:none;" d="M396 50L397 51L396 50z"/>
<path style="fill:#7f9cbe; stroke:none;" d="M399 50L400 51L399 50z"/>
<path style="fill:#4d4d4e; stroke:none;" d="M404.333 50.6667L404.667 51.3333L404.333 50.6667z"/>
<path style="fill:#7f9cbe; stroke:none;" d="M410 50L412 52L410 50M414 50L415 51L414 50z"/>
<path style="fill:#4d4d4e; stroke:none;" d="M415 50L416 51L415 50z"/>
<path style="fill:#7f9cbe; stroke:none;" d="M554 50L555 51L554 50M575 50L576 51L575 50M114 51L115 52L114 51M374 51L374 52L377 52L374 51z"/>
<path style="fill:#4d4d4e; stroke:none;" d="M410 51L411 52L410 51z"/>
<path style="fill:#7f9cbe; stroke:none;" d="M417 51L418 52L417 51z"/>
<path style="fill:#4d4d4e; stroke:none;" d="M418 51L419 52L418 51z"/>
<path style="fill:#7f9cbe; stroke:none;" d="M555 51L556 52L555 51M574 51L575 52L574 51M132 52L133 53L132 52z"/>
<path style="fill:#4d4d4e; stroke:none;" d="M373 52L372 54L373 52z"/>
<path style="fill:#04060c; stroke:none;" d="M370 88C359.636 101.602 346.909 113.746 335.015 126C332.308 128.79 324.667 136.133 327.136 140.667C330.118 146.146 340.08 137.352 343 135.533C358.602 125.816 374.624 117.127 390 107C382.156 121.135 372.026 133.933 364.095 148C362.32 151.149 356.285 160.754 360.607 163.953C366.779 168.521 380.729 151.425 385.085 148.225C387.27 146.619 391.147 144.487 390.248 141.148C388.513 134.7 378.285 143.109 376 145C383.454 131.851 391.46 118.753 399.544 106C401.624 102.719 408.172 95.4616 403.526 91.6968C399.486 88.4231 392.151 94.821 389 97.0363C376.093 106.11 363.457 114.764 350 123C359.087 110.1 371.533 97.7828 382.17 86C384.738 83.1553 392.838 77.0861 389.928 72.4491C386.934 67.6775 377.964 73.903 375 75.885C361.828 84.6926 348.33 94.2207 334 101C340.366 94.6297 346.258 88.0358 353 82.0502C357.001 78.4978 360.899 74.7554 365 71.3248C369.466 67.5889 374.772 64.4586 377.408 59.0008C378.485 56.7709 378.722 52.4119 374.98 52.9213C370.914 53.4748 366.277 60.269 363 62.7145C349.671 72.6614 334.384 84.8492 325.38 99.0008C323.177 102.462 312.941 112.224 316.047 116.392C319.02 120.382 327.085 113.541 330 112.109C344.2 105.13 356.419 95.813 370 88z"/>
<path style="fill:#4d4d4e; stroke:none;" d="M377 52L378 53L377 52z"/>
<path style="fill:#7f9cbe; stroke:none;" d="M404 52L405 53L404 52z"/>
<path style="fill:#4d4d4e; stroke:none;" d="M412 52L413 53L412 52z"/>
<path style="fill:#7f9cbe; stroke:none;" d="M556 52L557 53L556 52M573 52L574 53L573 52M117 53L118 54L117 53M131 53L132 54L131 53z"/>
<path style="fill:#4d4d4e; stroke:none;" d="M378 53L379 54L378 53z"/>
<path style="fill:#7f9cbe; stroke:none;" d="M405 53L406 54L405 53z"/>
<path style="fill:#4d4d4e; stroke:none;" d="M414 53L415 54L414 53z"/>
<path style="fill:#7f9cbe; stroke:none;" d="M558 53L559 54L558 53M571 53L572 54L571 53M119 54L119 55L122 55L119 54M128.667 54.3333L129.333 54.6667L128.667 54.3333M371 54L372 55L371 54M406 54L407 55L406 54z"/>
<path style="fill:#4d4d4e; stroke:none;" d="M415.333 54.6667L415.667 55.3333L415.333 54.6667z"/>
<path style="fill:#7f9cbe; stroke:none;" d="M560.667 54.3333L561.333 54.6667L560.667 54.3333M568.667 54.3333L569.333 54.6667L568.667 54.3333M379 55L380 56L379 55z"/>
<path style="fill:#4d4d4e; stroke:none;" d="M408 55L409 56L408 55M370 56L371 57L370 56z"/>
<path style="fill:#7f9cbe; stroke:none;" d="M409 56L410 57L409 56M415 56L416 57L415 56z"/>
<path style="fill:#4d4d4e; stroke:none;" d="M369 57L370 58L369 57M378 57L379 58L378 57z"/>
<path style="fill:#7f9cbe; stroke:none;" d="M411.667 57.3333L412.333 57.6667L411.667 57.3333z"/>
<path style="fill:#4d4d4e; stroke:none;" d="M413 57L414 58L413 57z"/>
<path style="fill:#7f9cbe; stroke:none;" d="M414 57L415 58L414 57z"/>
<path style="fill:#4d4d4e; stroke:none;" d="M368 58L369 59L368 58z"/>
<path style="fill:#7f9cbe; stroke:none;" d="M378 58L379 59L378 58z"/>
<path style="fill:#4d4d4e; stroke:none;" d="M367 59L368 60L367 59M377 59L378 60L377 59M376 60L377 61L376 60z"/>
<path style="fill:#7f9cbe; stroke:none;" d="M364 61L365 62L364 61z"/>
<path style="fill:#4d4d4e; stroke:none;" d="M363 62L364 63L363 62M362 63L363 64L362 63z"/>
<path style="fill:#7f9cbe; stroke:none;" d="M448 63L448 64L454 64L448 63M193 64L193 65L197 65L193 64z"/>
<path style="fill:#2b68b0; stroke:none;" d="M176 78L175 78L175 67L151 67L151 148L176 148C176 132.678 172.618 112.681 177.221 98C179.681 90.1523 187.609 83.928 195.996 87.6566C202.414 90.5098 204.457 97.5412 204.91 104C205.93 118.527 205 133.436 205 148L230 148C230 127.096 235.362 95.9881 225.084 77.0008C215.415 59.1374 185.058 60.5504 176 78z"/>
<path style="fill:#7f9cbe; stroke:none;" d="M201 64L201 65L207 65L201 64M357 64L357 65L360 65L357 64z"/>
<path style="fill:#4d4d4e; stroke:none;" d="M360 64L361 65L360 64M373 64L372 66L373 64z"/>
<path style="fill:#7f9cbe; stroke:none;" d="M374 64L374 65L377 65L374 64M442.667 64.3333L443.333 64.6667L442.667 64.3333M458 64L458 65L461 65L458 64M636 64L636 65L649 65L636 64M190 65L191 66L190 65M209.667 65.3333L210.333 65.6667L209.667 65.3333M353.667 65.3333L354.333 65.6667L353.667 65.3333z"/>
<path style="fill:#2b68b0; stroke:none;" d="M323 102L324 102L359 65C339.926 66.5601 323.835 82.8599 323 102M335 99L335 100L355.04 84.9699L387 70C370.095 53.063 347.231 90.3603 335 99z"/>
<path style="fill:#7f9cbe; stroke:none;" d="M379.667 65.3333L380.333 65.6667L379.667 65.3333M438.667 65.3333L439.333 65.6667L438.667 65.3333M462.667 65.3333L463.333 65.6667L462.667 65.3333M632.667 65.3333L633.333 65.6667L632.667 65.3333z"/>
<path style="fill:#fdfefe; stroke:none;" d="M618 77C617.465 63.0336 605.274 67 594 67L594 148L619 148L619 109C619 101.948 619.087 94.3191 625.105 89.4329C632.421 83.4926 643.448 87.2498 646.196 96C650.684 110.29 647.813 133.034 647 148L672 148C672 126.954 676.835 98.7666 668.521 79C659.468 57.4781 630.285 63.0553 618 77z"/>
<path style="fill:#7f9cbe; stroke:none;" d="M651 65L651 66L654 66L651 65M112 66L112 67L137 67L112 66M151 66L151 67L175 67L151 66M187 66L188 67L187 66M213 66L214 67L213 66M296 66L296 67L321 67L296 66M322 66L322 67L327 68L322 66M350 66L351 67L350 66M382 66L383 67L382 66M436 66L437 67L436 66M465.667 66.3333L466.333 66.6667L465.667 66.3333M552 66L552 148L553 148L553 67L577 67L577 148L578 148L578 66L552 66M594 66L594 67C600.647 67 611.559 64.8776 617 69C618.751 64.3554 597.784 66 594 66M630 66L631 67L630 66M655.667 66.3333L656.333 66.6667L655.667 66.3333z"/>
<path style="fill:#2b68b0; stroke:none;" d="M112 67L112 148L137 148L137 67L112 67z"/>
<path style="fill:#7f9cbe; stroke:none;" d="M175 67L175 78L176 78L175 67M185 67L186 68L185 67M215 67L216 68L215 67M295 67L296 68L295 67M347.667 67.3333L348.333 67.6667L347.667 67.3333M384.667 67.3333L385.333 67.6667L384.667 67.3333M434 67L435 68L434 67M468 67L469 68L468 67z"/>
<path style="fill:#fdfefe; stroke:none;" d="M553 67L553 148L577 148L577 67L553 67z"/>
<path style="fill:#7f9cbe; stroke:none;" d="M593 67L593 148L594 148L594 92L593 67M628 67L629 68L628 67M657 67L658 68L657 67M184 68L185 69L184 68M217 68L218 69L217 68M294 68L295 69L294 68M325 68L326 69L325 68M345 68L346 69L345 68z"/>
<path style="fill:#4d4d4e; stroke:none;" d="M368 68L369 69L368 68z"/>
<path style="fill:#7f9cbe; stroke:none;" d="M386 68L387 69L386 68M432 68L433 69L432 68M469 68L470 69L469 68M626 68L627 69L626 68M659 68L660 69L659 68M182 69L183 70L182 69M218 69L219 70L218 69M293 69L294 70L293 69M324 69L325 70L324 69M343 69L344 70L343 69z"/>
<path style="fill:#4d4d4e; stroke:none;" d="M367 69L368 70L367 69M387 69L389 71L387 69z"/>
<path style="fill:#7f9cbe; stroke:none;" d="M388 69L389 70L388 69M431 69L432 70L431 69M625 69L626 70L625 69M661 69L662 70L661 69M181 70L182 71L181 70M292 70L293 71L292 70M323 70L324 71L323 70M341.667 70.3333L342.333 70.6667L341.667 70.3333z"/>
<path style="fill:#4d4d4e; stroke:none;" d="M365 70L366 71L365 70z"/>
<path style="fill:#2b68b0; stroke:none;" d="M389 70L390 71L389 70z"/>
<path style="fill:#7f9cbe; stroke:none;" d="M429 70L430 71L429 70M662 70L663 71L662 70M180 71L181 72L180 71M221 71L222 72L221 71M340 71L341 72L340 71z"/>
<path style="fill:#4d4d4e; stroke:none;" d="M364 71L365 72L364 71z"/>
<path style="fill:#2b68b0; stroke:none;" d="M390 71C391.5 79.771 382.923 81.8739 380.212 89C379.16 91.7651 380.59 95.198 381 98C370.979 98.0077 361.807 104.995 359 115C375.793 114.127 387.053 94.6027 403 90C401.112 82.0557 396.664 75.7069 390 71z"/>
<path style="fill:#7f9cbe; stroke:none;" d="M391 71L392 72L391 71M428 71L429 72L428 71M663 71L664 72L663 71M179 72L180 73L179 72M338.667 72.3333L339.333 72.6667L338.667 72.3333z"/>
<path style="fill:#4d4d4e; stroke:none;" d="M351 72L352 73L351 72M363 72L364 73L363 72M380 72L381 73L380 72z"/>
<path style="fill:#7f9cbe; stroke:none;" d="M392 72L393 73L392 72M427 72L428 73L427 72M617 72L618 73L617 72M664 72L665 73L664 72M178 73L179 74L178 73M290 73L291 74L290 73M321 73L322 74L321 73M337 73L338 74L337 73z"/>
<path style="fill:#4d4d4e; stroke:none;" d="M362 73L363 74L362 73M378 73L379 74L378 73z"/>
<path style="fill:#7f9cbe; stroke:none;" d="M393 73L394 74L393 73M426 73L427 74L426 73M665 73L666 74L665 73M177 74L178 75L177 74M223 74L224 75L223 74M289 74L290 75L289 74M320 74L321 75L320 74M336 74L337 75L336 74z"/>
<path style="fill:#4d4d4e; stroke:none;" d="M361 74L362 75L361 74z"/>
<path style="fill:#7f9cbe; stroke:none;" d="M394 74L395 75L394 74M425 74L426 75L425 74M620 74L621 75L620 74M224 75L225 76L224 75M288 75L289 76L288 75M319 75L320 76L319 75M335 75L336 76L335 75M395 75L396 76L395 75M424 75L425 76L424 75M619 75L620 76L619 75M287 76L288 77L287 76M318 76L319 77L318 76M334 76L335 77L334 76z"/>
<path style="fill:#4d4d4e; stroke:none;" d="M359 76L360 77L359 76M374 76L375 77L374 76M390 76L391 77L390 76z"/>
<path style="fill:#7f9cbe; stroke:none;" d="M396 76L397 77L396 76M423 76L424 77L423 76M618 76L619 77L618 76M667 76L668 77L667 76M225 77L226 78L225 77M317 77L318 78L317 77M333 77L334 78L333 77z"/>
<path style="fill:#4d4d4e; stroke:none;" d="M358 77L359 78L358 77z"/>
<path style="fill:#7f9cbe; stroke:none;" d="M422 77L423 78L422 77M316 78L317 79L316 78M332 78L333 79L332 78z"/>
<path style="fill:#4d4d4e; stroke:none;" d="M371 78L372 79L371 78z"/>
<path style="fill:#7f9cbe; stroke:none;" d="M668 78L669 79L668 78M226 79L227 80L226 79M331 79L332 80L331 79z"/>
<path style="fill:#4d4d4e; stroke:none;" d="M343 79L344 80L343 79M355 79L356 80L355 79M369 79L370 80L369 79M388 79L389 80L388 79z"/>
<path style="fill:#7f9cbe; stroke:none;" d="M398 79L399 80L398 79M421 79L422 80L421 79M284 80L285 81L284 80M330 80L331 81L330 80z"/>
<path style="fill:#4d4d4e; stroke:none;" d="M367 80L368 81L367 80M387 80L388 81L387 80z"/>
<path style="fill:#7f9cbe; stroke:none;" d="M399 80L400 81L399 80M420 80L421 81L420 80M669.333 80.6667L669.667 81.3333L669.333 80.6667M283 81L284 82L283 81M314 81L315 82L314 81z"/>
<path style="fill:#4d4d4e; stroke:none;" d="M365 81L366 82L365 81M386 81L387 82L386 81z"/>
<path style="fill:#7f9cbe; stroke:none;" d="M227.333 82.6667L227.667 83.3333L227.333 82.6667M282 82L283 83L282 82M313 82L314 83L313 82M359 82L359 83L364 83L364 82L359 82z"/>
<path style="fill:#fdfefe; stroke:none;" d="M362 82L363 83L362 82z"/>
<path style="fill:#4d4d4e; stroke:none;" d="M364 82L365 83L364 82M385 82L386 83L385 82z"/>
<path style="fill:#7f9cbe; stroke:none;" d="M400 82L401 83L400 82M419 82L420 83L419 82M281 83L282 84L281 83M312 83L313 84L312 83M328 83L329 84L328 83z"/>
<path style="fill:#4d4d4e; stroke:none;" d="M351 83L352 84L351 83z"/>
<path style="fill:#7f9cbe; stroke:none;" d="M357 83L358 84L357 83z"/>
<path style="fill:#fdfefe; stroke:none;" d="M349 92L362 84C356.285 82.0407 351.649 87.5145 349 92z"/>
<path style="fill:#4d4d4e; stroke:none;" d="M384 83L385 84L384 83z"/>
<path style="fill:#7f9cbe; stroke:none;" d="M418 83L419 84L418 83M280 84L281 85L280 84M311 84L312 85L311 84M355 84L356 85L355 84z"/>
<path style="fill:#4d4d4e; stroke:none;" d="M361 84L362 85L361 84M383 84L384 85L383 84z"/>
<path style="fill:#7f9cbe; stroke:none;" d="M401 84L402 85L401 84M670.333 84.6667L670.667 85.3333L670.333 84.6667M228 85L228 88L229 88L228 85M310 85L311 86L310 85M327 85L328 86L327 85M353.667 85.3333L354.333 85.6667L353.667 85.3333M359 85L360 86L359 85z"/>
<path style="fill:#4d4d4e; stroke:none;" d="M382 85L383 86L382 85z"/>
<path style="fill:#7f9cbe; stroke:none;" d="M417.333 85.6667L417.667 86.3333L417.333 85.6667M189 86L189 87L193 87L189 86z"/>
<path style="fill:#4d4d4e; stroke:none;" d="M336 86L337 87L336 86M347 86L348 87L347 86z"/>
<path style="fill:#7f9cbe; stroke:none;" d="M352 86L353 87L352 86M358 86L359 87L358 86z"/>
<path style="fill:#4d4d4e; stroke:none;" d="M381 86L382 87L381 86z"/>
<path style="fill:#7f9cbe; stroke:none;" d="M402.333 86.6667L402.667 87.3333L402.333 86.6667M453 86L453 87L456 87L453 86z"/>
<path style="fill:#fdfefe; stroke:none;" d="M456 86.4545C429.246 90.1066 435.569 130.286 463 126.815C487.254 123.746 480.784 83.0712 456 86.4545z"/>
<path style="fill:#7f9cbe; stroke:none;" d="M461 86L461 87L464 87L461 86M632 86L632 87L636 87L632 86M185.667 87.3333L186.333 87.6667L185.667 87.3333M196 87L197 88L196 87M278 87L279 88L278 87M326 87L327 88L326 87z"/>
<path style="fill:#4d4d4e; stroke:none;" d="M346 87L347 88L346 87z"/>
<path style="fill:#7f9cbe; stroke:none;" d="M351 87L352 88L351 87z"/>
<path style="fill:#4d4d4e; stroke:none;" d="M357 87L358 88L357 87M380 87L381 88L380 87z"/>
<path style="fill:#7f9cbe; stroke:none;" d="M450 87L451 88L450 87M466 87L467 88L466 87M627.667 87.3333L628.333 87.6667L627.667 87.3333M638.667 87.3333L639.333 87.6667L638.667 87.3333M183 88L184 89L183 88M198 88L199 89L198 88M277 88L278 89L277 88M355 88L356 89L355 88z"/>
<path style="fill:#4d4d4e; stroke:none;" d="M368.667 88.3333L369.333 88.6667L368.667 88.3333z"/>
<path style="fill:#7f9cbe; stroke:none;" d="M416 88L417 89L416 88M448 88L449 89L448 88M468 88L469 89L468 88M625.667 88.3333L626.333 88.6667L625.667 88.3333M641 88L642 89L641 88M671 88L671 92L672 92L671 88M182 89L183 90L182 89M276 89L277 90L276 89M307 89L308 90L307 89M325 89L326 90L325 89z"/>
<path style="fill:#4d4d4e; stroke:none;" d="M344 89L345 90L344 89z"/>
<path style="fill:#7f9cbe; stroke:none;" d="M350 89L351 90L350 89M354 89L355 90L354 89M367 89L366 91L367 89z"/>
<path style="fill:#fdfefe; stroke:none;" d="M368 89L358 96L358 97C362.514 96.3035 366.877 93.6265 368 89z"/>
<path style="fill:#7f9cbe; stroke:none;" d="M403 89L404 90L403 89M446 89L447 90L446 89M470 89L471 90L470 89M624 89L625 90L624 89M642 89L643 90L642 89M180 90L181 91L180 90M200 90L201 91L200 90M275 90L276 91L275 90M306 90L307 91L306 90z"/>
<path style="fill:#4d4d4e; stroke:none;" d="M343 90L344 91L343 90z"/>
<path style="fill:#7f9cbe; stroke:none;" d="M349 90L350 91L349 90M352 90L353 91L352 90z"/>
<path style="fill:#4d4d4e; stroke:none;" d="M353 90L354 91L353 90M365 90L366 91L365 90M368 90L369 91L368 90z"/>
<path style="fill:#7f9cbe; stroke:none;" d="M378 90L376 93L380 92L378 90z"/>
<path style="fill:#4d4d4e; stroke:none;" d="M400 90L401 91L400 90M403 90L404 91L403 90z"/>
<path style="fill:#7f9cbe; stroke:none;" d="M445 90L446 91L445 90M471 90L472 91L471 90M623 90L624 91L623 90M643 90L644 91L643 90M201 91L202 92L201 91M229 91L229 99L230 99L229 91M274 91L275 92L274 91M305 91L306 92L305 91M324.333 91.6667L324.667 92.3333L324.333 91.6667z"/>
<path style="fill:#4d4d4e; stroke:none;" d="M331 91L332 92L331 91M351 91L352 92L351 91M364 91L365 92L364 91M367 91L368 92L367 91z"/>
<path style="fill:#fdfefe; stroke:none;" d="M378 91L374 97L380 97L378 91z"/>
<path style="fill:#4d4d4e; stroke:none;" d="M404 91L405 92L404 91z"/>
<path style="fill:#7f9cbe; stroke:none;" d="M415 91L416 92L415 91M472 91L473 92L472 91M622 91L623 92L622 91M644.333 91.6667L644.667 92.3333L644.333 91.6667M179 92L180 93L179 92M304 92L305 93L304 92z"/>
<path style="fill:#4d4d4e; stroke:none;" d="M342 92L343 93L342 92M349 92L350 93L349 92z"/>
<path style="fill:#7f9cbe; stroke:none;" d="M363 92L364 93L363 92M366 92L367 93L366 92M405 92L406 93L405 92M443 92L444 93L443 92M473 92L474 93L473 92M202 93L203 94L202 93M303 93L304 94L303 93z"/>
<path style="fill:#4d4d4e; stroke:none;" d="M341 93L342 94L341 93M346 93L347 94L346 93z"/>
<path style="fill:#7f9cbe; stroke:none;" d="M362 93L363 94L362 93M365 93L366 94L365 93z"/>
<path style="fill:#4d4d4e; stroke:none;" d="M375 93L376 94L375 93M394 93L395 94L394 93M405 93L406 94L405 93z"/>
<path style="fill:#7f9cbe; stroke:none;" d="M442 93L443 94L442 93M474 93L475 94L474 93M621 93L622 94L621 93M645.333 93.6667L645.667 94.3333L645.333 93.6667M178 94L179 95L178 94M272 94L273 95L272 94M302 94L303 95L302 94M323 94L323 97L324 97L323 94z"/>
<path style="fill:#4d4d4e; stroke:none;" d="M328 94L329 95L328 94M340 94L341 95L340 94M360 94L361 95L360 94z"/>
<path style="fill:#7f9cbe; stroke:none;" d="M364 94L365 95L364 94z"/>
<path style="fill:#4d4d4e; stroke:none;" d="M374 94L375 95L374 94z"/>
<path style="fill:#7f9cbe; stroke:none;" d="M380 94C378.088 96.9208 376.304 96.6905 373 96L381 98L380 94M414.333 94.6667L414.667 95.3333L414.333 94.6667M441 94L442 95L441 94M475 94L476 95L475 94M203.333 95.6667L203.667 96.3333L203.333 95.6667M271 95L272 96L271 95z"/>
<path style="fill:#4d4d4e; stroke:none;" d="M339 95L340 96L339 95M343 95L344 96L343 95z"/>
<path style="fill:#7f9cbe; stroke:none;" d="M359 95L360 96L359 95M363 95L364 96L363 95z"/>
<path style="fill:#4d4d4e; stroke:none;" d="M391 95L392 96L391 95M405 95L406 96L405 95z"/>
<path style="fill:#7f9cbe; stroke:none;" d="M620 95L621 96L620 95M177.333 96.6667L177.667 97.3333L177.333 96.6667M270 96L271 97L270 96z"/>
<path style="fill:#4d4d4e; stroke:none;" d="M338 96L339 97L338 96M357 96L356 98L357 96z"/>
<path style="fill:#7f9cbe; stroke:none;" d="M362 96L363 97L362 96M405 96L405 103L406 103L405 96M440 96L441 97L440 96M476 96L477 97L476 96M646 96L646 100L647 100L646 96M269 97L270 98L269 97z"/>
<path style="fill:#4d4d4e; stroke:none;" d="M337 97L338 98L337 97M340 97L341 98L340 97z"/>
<path style="fill:#7f9cbe; stroke:none;" d="M357 97L357 98L362 98L357 97z"/>
<path style="fill:#4d4d4e; stroke:none;" d="M372 97L373 98L372 97M388 97L389 98L388 97z"/>
<path style="fill:#7f9cbe; stroke:none;" d="M672 97L672 147L673 147C673 132.951 677.409 109.889 672 97M268 98L269 99L268 98M299 98L300 99L299 98M322 98L322 103L323 103L322 98z"/>
<path style="fill:#4d4d4e; stroke:none;" d="M325.333 98.6667L325.667 99.3333L325.333 98.6667M336 98L337 99L336 98M338 98L339 99L338 98z"/>
<path style="fill:#2b68b0; stroke:none;" d="M323 116L329 131C339.643 123.503 354.474 109.92 360 98C348.46 98.5987 332.788 109.822 323 116z"/>
<path style="fill:#4d4d4e; stroke:none;" d="M360 98L361 99L360 98M371 98L372 99L371 98M404 98L405 99L404 98z"/>
<path style="fill:#7f9cbe; stroke:none;" d="M439.333 98.6667L439.667 99.3333L439.333 98.6667M477.333 98.6667L477.667 99.3333L477.333 98.6667M619 98L619 101L620 101L619 98M298 99L299 100L298 99z"/>
<path style="fill:#4d4d4e; stroke:none;" d="M337 99L338 100L337 99M370 99L371 100L370 99z"/>
<path style="fill:#2b68b0; stroke:none;" d="M404 99L396 115L406 115L404 99z"/>
<path style="fill:#7f9cbe; stroke:none;" d="M413 99L413 103L414 103L413 99M176 100L176 148L177 148C177 134.474 181.209 112.414 176 100M204 100L204 148L205 148C205 134.474 209.209 112.414 204 100M297 100L298 101L297 100z"/>
<path style="fill:#4d4d4e; stroke:none;" d="M324 100L325 101L324 100M334.667 100.333L335.333 100.667L334.667 100.333M350 100L351 101L350 100M369 100L370 101L369 100M384 100L385 101L384 100z"/>
<path style="fill:#7f9cbe; stroke:none;" d="M296 101L297 102L296 101z"/>
<path style="fill:#4d4d4e; stroke:none;" d="M358 101L359 102L358 101M368 101L369 102L368 101M383 101L384 102L383 101M402 101L403 102L402 101z"/>
<path style="fill:#7f9cbe; stroke:none;" d="M295 102L296 103L295 102z"/>
<path style="fill:#4d4d4e; stroke:none;" d="M347 102L348 103L347 102M357 102L358 103L357 102z"/>
<path style="fill:#7f9cbe; stroke:none;" d="M438 102L438 112L439 112L438 102M478 102L478 112L479 112L478 102z"/>
<path style="fill:#4d4d4e; stroke:none;" d="M322 103L323 104L322 103M356 103L357 104L356 103M380 103L381 104L380 103z"/>
<path style="fill:#7f9cbe; stroke:none;" d="M294 104L295 105L294 104M321 104L322 105L321 104z"/>
<path style="fill:#4d4d4e; stroke:none;" d="M344 104L345 105L344 104M355 104L356 105L355 104M379 104L380 105L379 104z"/>
<path style="fill:#7f9cbe; stroke:none;" d="M295 105L296 106L295 105z"/>
<path style="fill:#4d4d4e; stroke:none;" d="M321 105L322 106L321 105M354 105L355 106L354 105M365 105L366 106L365 105M399 105L400 106L399 105z"/>
<path style="fill:#7f9cbe; stroke:none;" d="M320 106L321 107L320 106z"/>
<path style="fill:#4d4d4e; stroke:none;" d="M341 106L342 107L341 106M364 106L365 107L364 106M376 106L377 107L376 106z"/>
<path style="fill:#7f9cbe; stroke:none;" d="M296 107L297 108L296 107M319 107L320 108L319 107z"/>
<path style="fill:#4d4d4e; stroke:none;" d="M339 107L340 108L339 107M386 110L388 109L387 112L388 112L390 107L386 110z"/>
<path style="fill:#7f9cbe; stroke:none;" d="M268 108L269 109L268 108M297 108L298 109L297 108z"/>
<path style="fill:#4d4d4e; stroke:none;" d="M318 108L319 109L318 108M337 108L338 109L337 108M373 108L374 109L373 108z"/>
<path style="fill:#7f9cbe; stroke:none;" d="M269 109L270 110L269 109M298 109L299 110L298 109z"/>
<path style="fill:#4d4d4e; stroke:none;" d="M317 109L318 110L317 109M335 109L336 110L335 109z"/>
<path style="fill:#2b68b0; stroke:none;" d="M387 109L380 115C383.851 114.707 387.605 113.463 387 109z"/>
<path style="fill:#4d4d4e; stroke:none;" d="M316 110L317 111L316 110M333 110L334 111L333 110M350 110L351 111L350 110M370 110L371 111L370 110z"/>
<path style="fill:#7f9cbe; stroke:none;" d="M270 111L271 112L270 111M299 111L300 112L299 111M315 111L316 112L315 111z"/>
<path style="fill:#4d4d4e; stroke:none;" d="M331 111L332 112L331 111M369 111L370 112L369 111M383 111L384 112L383 111M396 111L397 112L396 111z"/>
<path style="fill:#7f9cbe; stroke:none;" d="M271 112L272 113L271 112M300 112L301 113L300 112z"/>
<path style="fill:#4d4d4e; stroke:none;" d="M328.667 112.333L329.333 112.667L328.667 112.333M348 112L349 113L348 112z"/>
<path style="fill:#7f9cbe; stroke:none;" d="M413 112L413 117L414 117L413 112M301 113L302 114L301 113M314 113L314 116L315 116L314 113z"/>
<path style="fill:#4d4d4e; stroke:none;" d="M347 113L348 114L347 113M358 113L357 115L359 115L358 113M366 113L367 114L366 113M380 113L381 114L380 113M395.333 113.667L395.667 114.333L395.333 113.667z"/>
<path style="fill:#7f9cbe; stroke:none;" d="M272 114L273 115L272 114z"/>
<path style="fill:#4d4d4e; stroke:none;" d="M325 114L326 115L325 114M346 114L347 115L346 114M364 114L365 115L364 114M378.667 114.333L379.333 114.667L378.667 114.333M385 114L386 115L385 114z"/>
<path style="fill:#7f9cbe; stroke:none;" d="M439.333 114.667L439.667 115.333L439.333 114.667M477.333 114.667L477.667 115.333L477.333 114.667M273 115L274 116L273 115M302 115L303 116L302 115z"/>
<path style="fill:#4d4d4e; stroke:none;" d="M323 115L324 116L323 115M345 115L346 116L345 115z"/>
<path style="fill:#7f9cbe; stroke:none;" d="M356 115L353 119L356 115z"/>
<path style="fill:#fdfefe; stroke:none;" d="M352 121L362 116C357.479 114.311 354.547 117.502 352 121z"/>
<path style="fill:#7f9cbe; stroke:none;" d="M362 115L363 116L362 115z"/>
<path style="fill:#4d4d4e; stroke:none;" d="M363 115L364 116L363 115z"/>
<path style="fill:#7f9cbe; stroke:none;" d="M377 115L378 116L377 115z"/>
<path style="fill:#fdfefe; stroke:none;" d="M357 128C369.264 135.49 379.772 126.548 384 115C374.716 115.224 364.654 122.952 357 128z"/>
<path style="fill:#7f9cbe; stroke:none;" d="M384 115L385 116L384 115M394 115L395 116L394 115M303 116L304 117L303 116M322 116L323 117L322 116z"/>
<path style="fill:#4d4d4e; stroke:none;" d="M344 116L345 117L344 116M361 116L362 117L361 116M375 116L376 117L375 116M393 116L394 117L393 116z"/>
<path style="fill:#7f9cbe; stroke:none;" d="M274 117L275 118L274 117M304 117L305 118L304 117M315 117L316 118L315 117z"/>
<path style="fill:#4d4d4e; stroke:none;" d="M343 117L344 118L343 117M359 117L360 118L359 117M374 117L375 118L374 117M383 117L384 118L383 117z"/>
<path style="fill:#7f9cbe; stroke:none;" d="M440 117L441 118L440 117M476 117L477 118L476 117M275 118L276 119L275 118M317 118L317 119L320 119L317 118M323.333 118.667L323.667 119.333L323.333 118.667z"/>
<path style="fill:#4d4d4e; stroke:none;" d="M342 118L343 119L342 118z"/>
<path style="fill:#7f9cbe; stroke:none;" d="M357 118L358 119L357 118M373 118L374 119L373 118M382 118L383 119L382 118M392 118L393 119L392 118M305 119L306 120L305 119z"/>
<path style="fill:#4d4d4e; stroke:none;" d="M341 119L342 120L341 119M352 119L353 120L352 119z"/>
<path style="fill:#7f9cbe; stroke:none;" d="M355 119L356 120L355 119M371 119L372 120L371 119z"/>
<path style="fill:#4d4d4e; stroke:none;" d="M382 119L383 120L382 119z"/>
<path style="fill:#7f9cbe; stroke:none;" d="M391 119L392 120L391 119M414.333 119.667L414.667 120.333L414.333 119.667M441 119L442 120L441 119M475 119L476 120L475 119M276 120L277 121L276 120M306 120L307 121L306 120z"/>
<path style="fill:#4d4d4e; stroke:none;" d="M340 120L341 121L340 120M350 123L351 123L353 122C351.188 120.499 350.978 120.842 350 123z"/>
<path style="fill:#7f9cbe; stroke:none;" d="M353 120L354 121L353 120z"/>
<path style="fill:#4d4d4e; stroke:none;" d="M354 120L355 121L354 120M369 120L370 121L369 120z"/>
<path style="fill:#7f9cbe; stroke:none;" d="M370 120L371 121L370 120M381 120L382 121L381 120z"/>
<path style="fill:#4d4d4e; stroke:none;" d="M390 120L391 121L390 120z"/>
<path style="fill:#7f9cbe; stroke:none;" d="M442 120L443 121L442 120M474 120L475 121L474 120M277 121L278 122L277 121M324.333 121.667L324.667 122.333L324.333 121.667z"/>
<path style="fill:#4d4d4e; stroke:none;" d="M339 121L340 122L339 121z"/>
<path style="fill:#7f9cbe; stroke:none;" d="M351 121L352 122L351 121z"/>
<path style="fill:#4d4d4e; stroke:none;" d="M367 121L368 122L367 121z"/>
<path style="fill:#7f9cbe; stroke:none;" d="M368 121L369 122L368 121M443 121L444 122L443 121M473 121L474 122L473 121z"/>
<path style="fill:#4d4d4e; stroke:none;" d="M338 122L339 123L338 122z"/>
<path style="fill:#7f9cbe; stroke:none;" d="M366 122L367 123L366 122z"/>
<path style="fill:#4d4d4e; stroke:none;" d="M380 122L381 123L380 122z"/>
<path style="fill:#7f9cbe; stroke:none;" d="M389 122L390 123L389 122M444 122L445 123L444 122M472 122L473 123L472 122M278 123L279 124L278 123M308 123L309 124L308 123z"/>
<path style="fill:#4d4d4e; stroke:none;" d="M337 123L338 124L337 123z"/>
<path style="fill:#7f9cbe; stroke:none;" d="M364 123L365 124L364 123M379 123L380 124L379 123z"/>
<path style="fill:#4d4d4e; stroke:none;" d="M388.333 123.667L388.667 124.333L388.333 123.667z"/>
<path style="fill:#7f9cbe; stroke:none;" d="M415.333 123.667L415.667 124.333L415.333 123.667M445 123L446 124L445 123M471 123L472 124L471 123M279 124L280 125L279 124M309 124L310 125L309 124M325 124L326 125L325 124z"/>
<path style="fill:#4d4d4e; stroke:none;" d="M336 124L337 125L336 124M362 124L363 125L362 124M379 124L380 125L379 124z"/>
<path style="fill:#7f9cbe; stroke:none;" d="M389 124L391 126L389 124M446 124L447 125L446 124M470 124L471 125L470 124z"/>
<path style="fill:#4d4d4e; stroke:none;" d="M335 125L336 126L335 125M360 125L361 126L360 125z"/>
<path style="fill:#7f9cbe; stroke:none;" d="M378 125L379 126L378 125z"/>
<path style="fill:#2b68b0; stroke:none;" d="M388 125L377 143C382.605 140.933 387.282 136.494 392 142L401 133L388 125z"/>
<path style="fill:#7f9cbe; stroke:none;" d="M448 125L449 126L448 125M468 125L469 126L468 125M280 126L281 127L280 126M310 126L311 127L310 126M326.333 126.667L326.667 127.333L326.333 126.667z"/>
<path style="fill:#4d4d4e; stroke:none;" d="M334 126L335 127L334 126M358 126L359 127L358 126z"/>
<path style="fill:#7f9cbe; stroke:none;" d="M359 126L360 127L359 126M416 126L417 127L416 126M450.667 126.333L451.333 126.667L450.667 126.333M465.667 126.333L466.333 126.667L465.667 126.333M281 127L282 128L281 127M311 127L312 128L311 127z"/>
<path style="fill:#4d4d4e; stroke:none;" d="M333 127L334 128L333 127M356 127L355 129L356 127z"/>
<path style="fill:#7f9cbe; stroke:none;" d="M357 127L358 128L357 127z"/>
<path style="fill:#4d4d4e; stroke:none;" d="M377 127L378 128L377 127M386 127L387 128L386 127z"/>
<path style="fill:#7f9cbe; stroke:none;" d="M393 127L394 128L393 127M453 127L453 128L464 128L453 127M312 128L313 129L312 128M327 128L328 129L327 128z"/>
<path style="fill:#4d4d4e; stroke:none;" d="M332 128L333 129L332 128z"/>
<path style="fill:#7f9cbe; stroke:none;" d="M356 128L357 129L356 128M375 128L373 129L373 130L375 128z"/>
<path style="fill:#4d4d4e; stroke:none;" d="M376 128L377 129L376 128z"/>
<path style="fill:#7f9cbe; stroke:none;" d="M394 128L395 129L394 128M417 128L418 129L417 128M282 129L283 130L282 129z"/>
<path style="fill:#4d4d4e; stroke:none;" d="M331 129L332 130L331 129M353 129L354 130L353 129z"/>
<path style="fill:#2b68b0; stroke:none;" d="M338 141C343.548 144.073 355.89 152.546 362.61 148.883C365.744 147.174 368.011 141.871 369.996 139C372.05 136.029 373.479 133.573 374 130C361.525 131.577 345.305 126.711 338 141z"/>
<path style="fill:#7f9cbe; stroke:none;" d="M358.667 129.333L359.333 129.667L358.667 129.333z"/>
<path style="fill:#4d4d4e; stroke:none;" d="M375 129L376 130L375 129M385 129L386 130L385 129z"/>
<path style="fill:#7f9cbe; stroke:none;" d="M395.667 129.333L396.333 129.667L395.667 129.333M283 130L284 131L283 130M313 130L314 131L313 130M328 130L329 131L328 130z"/>
<path style="fill:#4d4d4e; stroke:none;" d="M330 130L331 131L330 130z"/>
<path style="fill:#7f9cbe; stroke:none;" d="M361 130L361 131L364 131L361 130M368 130L368 131L371 131L368 130z"/>
<path style="fill:#4d4d4e; stroke:none;" d="M374.333 130.667L374.667 131.333L374.333 130.667z"/>
<path style="fill:#7f9cbe; stroke:none;" d="M397 130L398 131L397 130M418 130L419 131L418 130M314 131L315 132L314 131z"/>
<path style="fill:#4d4d4e; stroke:none;" d="M329.333 131.667L329.667 132.333L329.333 131.667M350 131L351 132L350 131z"/>
<path style="fill:#7f9cbe; stroke:none;" d="M398 131L399 132L398 131M284 132L285 133L284 132M315 132L316 133L315 132z"/>
<path style="fill:#4d4d4e; stroke:none;" d="M348 132L349 133L348 132M383 132L384 133L383 132z"/>
<path style="fill:#7f9cbe; stroke:none;" d="M400 132L401 133L400 132M419 132L420 133L419 132M285 133L286 134L285 133M328 133L329 134L328 133z"/>
<path style="fill:#4d4d4e; stroke:none;" d="M346 133L347 134L346 133M382 133L383 134L382 133z"/>
<path style="fill:#7f9cbe; stroke:none;" d="M401 133L400 136L401 133M420 133L421 134L420 133M316 134L317 135L316 134z"/>
<path style="fill:#4d4d4e; stroke:none;" d="M328 134L329 135L328 134M344 134L345 135L344 134M400 134L401 135L400 134z"/>
<path style="fill:#7f9cbe; stroke:none;" d="M286 135L287 136L286 135M317 135L318 136L317 135z"/>
<path style="fill:#4d4d4e; stroke:none;" d="M342 135L343 136L342 135M372 135L373 136L372 135M381.333 135.667L381.667 136.333L381.333 135.667z"/>
<path style="fill:#7f9cbe; stroke:none;" d="M421 135L422 136L421 135M287 136L288 137L287 136M318 136L319 137L318 136z"/>
<path style="fill:#4d4d4e; stroke:none;" d="M341 136L342 137L341 136M371 136L372 137L371 136z"/>
<path style="fill:#7f9cbe; stroke:none;" d="M422 136L423 137L422 136z"/>
<path style="fill:#4d4d4e; stroke:none;" d="M326 137L327 138L326 137z"/>
<path style="fill:#7f9cbe; stroke:none;" d="M423 137L424 138L423 137M478 137L478 148L479 148L478 137M288 138L289 139L288 138M319 138L320 139L319 138z"/>
<path style="fill:#4d4d4e; stroke:none;" d="M338 138L339 139L338 138M386 138L387 139L386 138M389 138L390 139L389 138z"/>
<path style="fill:#7f9cbe; stroke:none;" d="M397 138L398 139L397 138M424 138L425 139L424 138M289 139L290 140L289 139M320 139L321 140L320 139z"/>
<path style="fill:#4d4d4e; stroke:none;" d="M336.667 139.333L337.333 139.667L336.667 139.333M369 139L370 140L369 139M379 139L380 140L379 139M390 139L391 140L390 139z"/>
<path style="fill:#7f9cbe; stroke:none;" d="M396 139L397 140L396 139M425 139L426 140L425 139M476 139L477 140L476 139M335 140L336 141L335 140M337 140L338 141L337 140z"/>
<path style="fill:#4d4d4e; stroke:none;" d="M378 140L379 141L378 140M382 140L383 141L382 140M391 140L391 143L392 143L391 140z"/>
<path style="fill:#7f9cbe; stroke:none;" d="M395 140L396 141L395 140M426 140L427 141L426 140M475 140L476 141L475 140M290 141L291 142L290 141M326 141L327 142L326 141M334 141L335 142L334 141M339 141L340 142L339 141z"/>
<path style="fill:#4d4d4e; stroke:none;" d="M368 141L369 142L368 141z"/>
<path style="fill:#7f9cbe; stroke:none;" d="M394 141L395 142L394 141M427 141L428 142L427 141M474 141L475 142L474 141M291 142L292 143L291 142M322 142L323 143L322 142M327 142L328 143L327 142z"/>
<path style="fill:#4d4d4e; stroke:none;" d="M331 142L332 143L331 142z"/>
<path style="fill:#7f9cbe; stroke:none;" d="M332 142L333 143L332 142M340 142L341 143L340 142z"/>
<path style="fill:#4d4d4e; stroke:none;" d="M367 142L368 143L367 142M378 142L379 143L378 142z"/>
<path style="fill:#7f9cbe; stroke:none;" d="M392 142L393 143L392 142M428 142L429 143L428 142M473 142L474 143L473 142M323 143L324 144L323 143M341.667 143.333L342.333 143.667L341.667 143.333z"/>
<path style="fill:#4d4d4e; stroke:none;" d="M366 143L367 144L366 143M376 143L376 145L378 143L376 143z"/>
<path style="fill:#7f9cbe; stroke:none;" d="M391 143L392 144L391 143M430 143L431 144L430 143M472 143L473 144L472 143M292 144L293 145L292 144M343 144L344 145L343 144z"/>
<path style="fill:#4d4d4e; stroke:none;" d="M390 144L391 145L390 144z"/>
<path style="fill:#7f9cbe; stroke:none;" d="M431 144L432 145L431 144M470 144L471 145L470 144M647 144L648 145L647 144M100 145L100 148L101 148L100 145M324 145L325 146L324 145M345 145L346 146L345 145z"/>
<path style="fill:#4d4d4e; stroke:none;" d="M365 145L366 146L365 145M375 145L376 146L375 145z"/>
<path style="fill:#7f9cbe; stroke:none;" d="M389 145L390 146L389 145M433 145L434 146L433 145M469 145L470 146L469 145M325 146L326 147L325 146M347.667 146.333L348.333 146.667L347.667 146.333z"/>
<path style="fill:#4d4d4e; stroke:none;" d="M387 146L388 147L387 146z"/>
<path style="fill:#7f9cbe; stroke:none;" d="M435 146L436 147L435 146M467 146L468 147L467 146M294 147L295 148L294 147M326 147L327 148L326 147M350 147L351 148L350 147z"/>
<path style="fill:#4d4d4e; stroke:none;" d="M364 147L365 148L364 147z"/>
<path style="fill:#7f9cbe; stroke:none;" d="M386 147L387 148L386 147M437.667 147.333L438.333 147.667L437.667 147.333M465 147L466 148L465 147M27 148L28 149L27 148M29.6667 148.333L30.3333 148.667L29.6667 148.333M32 148L32 149L96 149L76 148L32 148M97 148L97 149L100 149L97 148M247 148L247 149L267 149L247 148M296 148L296 149L322 149L296 148M323.667 148.333L324.333 148.667L323.667 148.333M353.667 148.333L354.333 148.667L353.667 148.333M384 148L385 149L384 148M440.667 148.333L441.333 148.667L440.667 148.333M462.667 148.333L463.333 148.667L462.667 148.333M357 149L357 150L360 150L357 149z"/>
<path style="fill:#4d4d4e; stroke:none;" d="M382 149L383 150L382 149z"/>
<path style="fill:#7f9cbe; stroke:none;" d="M444 149L444 150L447 150L444 149M458 149L458 150L461 150L458 149z"/>
<path style="fill:#4d4d4e; stroke:none;" d="M362 151L363 152L362 151z"/>
<path style="fill:#7f9cbe; stroke:none;" d="M381 151L382 152L381 151M714 151L714 152L720 152L714 151M361 152L362 153L361 152M380 152L381 153L380 152M710 154L714 153L710 154z"/>
<path style="fill:#2b68b0; stroke:none;" d="M713.667 152.333L714.333 152.667L713.667 152.333z"/>
<path style="fill:#4d4d4e; stroke:none;" d="M719.667 152.333L720.333 152.667L719.667 152.333z"/>
<path style="fill:#7f9cbe; stroke:none;" d="M720 153L724 154L720 153z"/>
<path style="fill:#4d4d4e; stroke:none;" d="M378 153L379 154L378 153z"/>
<path style="fill:#7f9cbe; stroke:none;" d="M379 153L380 154L379 153z"/>
<path style="fill:#2b68b0; stroke:none;" d="M711 153L712 154L711 153z"/>
<path style="fill:#fdfefe; stroke:none;" d="M714.015 153.657C701.936 157.391 707.836 176.099 719.985 172.343C732.064 168.609 726.164 149.901 714.015 153.657z"/>
<path style="fill:#2b68b0; stroke:none;" d="M722 153L723 154L722 153z"/>
<path style="fill:#4d4d4e; stroke:none;" d="M360 154L361 155L360 154M377 154L378 155L377 154z"/>
<path style="fill:#2b68b0; stroke:none;" d="M709 154L707 159L708 159L711 154L709 154M723 154L727 158L723 154z"/>
<path style="fill:#7f9cbe; stroke:none;" d="M376 156L377 157L376 156M707 156L708 157L707 156M726 156L727 157L726 156M359 157L360 158L359 157M375 157L376 158L375 157M706 157L708 160L706 157M708 157L709 158L708 157z"/>
<path style="fill:#2b68b0; stroke:none;" d="M713 157L713 165L721 168L719 163C722.719 160.494 720.569 158.085 717 157L717 158C720.365 161.981 714.286 163.129 716 157L713 157z"/>
<path style="fill:#4d4d4e; stroke:none;" d="M716 157L717 158L716 157z"/>
<path style="fill:#7f9cbe; stroke:none;" d="M720 157L721 158L720 157M725 157L726 158L725 157M727 157L726 160L727 157z"/>
<path style="fill:#4d4d4e; stroke:none;" d="M359 158L360 159L359 158M373 158L374 159L373 158z"/>
<path style="fill:#7f9cbe; stroke:none;" d="M374 158L375 159L374 158M719 163L719 162L715 162L715 159L719 159C714.202 157.425 714.017 162.169 719 163M721 158L722 159L721 158M358 159L359 160L358 159z"/>
<path style="fill:#4d4d4e; stroke:none;" d="M372 159L373 160L372 159z"/>
<path style="fill:#7f9cbe; stroke:none;" d="M527.333 159.667L527.667 160.333L527.333 159.667z"/>
<path style="fill:#4d4d4e; stroke:none;" d="M706.333 159.667L706.667 160.333L706.333 159.667z"/>
<path style="fill:#fdfefe; stroke:none;" d="M715 159L715 162L720 162L720 159L715 159z"/>
<path style="fill:#2b68b0; stroke:none;" d="M727.333 159.667L727.667 160.333L727.333 159.667z"/>
<path style="fill:#4d4d4e; stroke:none;" d="M358.333 160.667L358.667 161.333L358.333 160.667M370 160L371 161L370 160z"/>
<path style="fill:#7f9cbe; stroke:none;" d="M371 160L372 161L371 160M705 160L705 166L706 166L705 160M728 160L728 166L729 166L728 160M369 161L370 162L369 161z"/>
<path style="fill:#2b68b0; stroke:none;" d="M706 161L707 162L706 161z"/>
<path style="fill:#7f9cbe; stroke:none;" d="M358 162L359 163L358 162M367 162L368 163L367 162M527 162L527 165L528 165L527 162M721 162L722 163L721 162M366 163L367 164L366 163M719.667 163.333L720.333 163.667L719.667 163.333M359 164L360 165L359 164z"/>
<path style="fill:#4d4d4e; stroke:none;" d="M365 164L366 165L365 164z"/>
<path style="fill:#2b68b0; stroke:none;" d="M706 164L707 165L706 164z"/>
<path style="fill:#7f9cbe; stroke:none;" d="M714 164L713 170L714 164M361 165L362 166L361 165z"/>
<path style="fill:#4d4d4e; stroke:none;" d="M362.667 165.333L363.333 165.667L362.667 165.333z"/>
<path style="fill:#7f9cbe; stroke:none;" d="M364 165L365 166L364 165M696.333 165.667L696.667 166.333L696.333 165.667z"/>
<path style="fill:#4d4d4e; stroke:none;" d="M706 165L707 166L706 165M713.333 165.667L713.667 166.333L713.333 165.667z"/>
<path style="fill:#7f9cbe; stroke:none;" d="M719 165L720 166L719 165z"/>
<path style="fill:#2b68b0; stroke:none;" d="M727 165L728 166L727 165z"/>
<path style="fill:#7f9cbe; stroke:none;" d="M528 166L529 167L528 166z"/>
<path style="fill:#2b68b0; stroke:none;" d="M706 166C707.978 170.4 710.241 172.858 715 174L715 173L706 166z"/>
<path style="fill:#7f9cbe; stroke:none;" d="M707 166L708 167L707 166M718 166L719 167L718 166M720 166L721 167L720 166M726 166L726 170L727 170L726 166z"/>
<path style="fill:#4d4d4e; stroke:none;" d="M727 166L728 167L727 166z"/>
<path style="fill:#7f9cbe; stroke:none;" d="M706.333 167.667L706.667 168.333L706.333 167.667z"/>
<path style="fill:#2b68b0; stroke:none;" d="M713 167L714 168L713 167M727 167L728 168L727 167z"/>
<path style="fill:#7f9cbe; stroke:none;" d="M529 168L530 169L529 168M708 168L709 169L708 168z"/>
<path style="fill:#4d4d4e; stroke:none;" d="M713 168L714 169L713 168z"/>
<path style="fill:#7f9cbe; stroke:none;" d="M719 168L719 169L722 170L722 169L722 168L719 168z"/>
<path style="fill:#4d4d4e; stroke:none;" d="M720 168L721 169L720 168z"/>
<path style="fill:#2b68b0; stroke:none;" d="M726 168L727 169L726 168z"/>
<path style="fill:#7f9cbe; stroke:none;" d="M530 169L531 170L530 169M694 169L695 170L694 169M707 169L708 170L707 169z"/>
<path style="fill:#2b68b0; stroke:none;" d="M725 169L721 174L725 169z"/>
<path style="fill:#7f9cbe; stroke:none;" d="M531 170L532 171L531 170M693 170L694 171L693 170M709 170L710 171L709 170M724 170L725 171L724 170M532 171L533 172L532 171M691 171L692 172L691 171M711 171L712 172L711 171M722 171L723 172L722 171M725 171L726 172L725 171M534 172L535 173L534 172M690 172L691 173L690 172M710 172L711 173L710 172M712.667 172.333L713.333 172.667L712.667 172.333M720.667 172.333L721.333 172.667L720.667 172.333M537 173L537 174L688 174C676.306 169.093 655.73 173 643 173L537 173M711 173L712 174L711 173M714 174L714 175L721 175L714 174z"/>
<path style="fill:#2b68b0; stroke:none;" d="M719 173L720 174L719 173z"/>
<path style="fill:#4d4d4e; stroke:none;" d="M720 173L721 174L720 173z"/>
<path style="fill:#7f9cbe; stroke:none;" d="M722 173L723 174L722 173z"/>
</svg>
